{"accessors" : [{"bufferView" : 0, "byteOffset" : 0, "componentType" : 5123, "count" : 19044, "type" : "SCALAR", "max" : [3784], "min" : [0]}, {"bufferView" : 1, "byteOffset" : 0, "componentType" : 5126, "count" : 3785, "type" : "VEC3", "max" : [323.77508544921875, 1826.2830810546875, 255.8896026611328], "min" : [-323.77508544921875, -0, -255.8896026611328], "name" : "POSITION"}, {"bufferView" : 1, "byteOffset" : 12, "componentType" : 5126, "count" : 3785, "type" : "VEC2", "max" : [1.0648000240325928, 1.0184999704360962], "min" : [0, 0], "name" : "TEXCOORD_0"}, {"bufferView" : 1, "byteOffset" : 20, "componentType" : 5126, "count" : 3785, "type" : "VEC3", "max" : [0.9997085332870483, 0.9989393353462219, 0.9997028112411499], "min" : [-0.9998965263366699, -0.9999564290046692, -0.9998928308486938], "name" : "NORMAL"}], "asset" : {"generator" : "Aspose.3D 24.6.0", "version" : "2.0"}, "buffers" : [{"uri" : "buffer.bin", "byteLength" : 159216}], "bufferViews" : [{"buffer" : 0, "byteOffset" : 0, "byteLength" : 38088, "target" : 34963}, {"buffer" : 0, "byteOffset" : 38092, "byteLength" : 121120, "byteStride" : 32, "target" : 34962}], "meshes" : [{"primitives" : [{"attributes" : {"POSITION" : 1, "TEXCOORD_0" : 2, "NORMAL" : 3}, "indices" : 0, "mode" : 4}], "name" : ""}], "nodes" : [{"mesh" : 0, "name" : "VNOBjectsMaster2"}], "scene" : 0, "scenes" : [{"nodes" : [0]}]}